<svg id="Capa_1" enable-background="new 0 0 512 512" height="512" viewBox="0 0 512 512" width="512" xmlns="http://www.w3.org/2000/svg"><path d="m454.19 169.292c29.606 69.884 52.938 151.283 57.57 194.052 2.097 19.359-9.787 36.679-27.06 42.941-4.428 1.605-9.187 2.006-14.179 2.006-28.511 0-49.986-19.133-62.536-44.733l-48.318-98.558z" fill="#5d5360"/><path d="m436.445 366.946-61.568-118.341-19.782 19.782 48.318 98.559c12.55 25.6 38.575 41.826 67.086 41.826 4.995 0 9.771-.879 14.201-2.486-20.741-5.417-38.55-19.543-48.255-39.34z" fill="#4b3f4e"/><path d="m65 173c-29.606 69.884-52.368 147.731-57 190.5-2.635 24.322 9.037 43.833 33.501 43.833 4.794 0 9.518.983 14.119.098 22.763-4.378 42.527-19.19 52.968-40.486l48.318-98.559z" fill="#5d5360"/><path d="m25.017 363.344c4.249-39.229 24.248-110.94 50.373-176.472l-17.58-17.58c-29.607 69.884-52.938 151.283-57.57 194.052-2.635 24.322 16.797 45.428 41.261 45.428 4.755 0 9.553-.469 14.119-1.34-19.066-5.126-32.833-23.497-30.603-44.088z" fill="#4b3f4e"/><path d="m371.611 276.645h-231.222v-140.385h66.063l9.048 6.99h78.75l11.298-6.99h66.063z" fill="#5d5360"/><path d="m206.452 268.387h99.095v16.516h-99.095z" fill="#4b3f4e"/><path d="m388.127 103.228h16.516c9.121 0 16.516 7.394 16.516 16.516v16.516h-49.548v-16.516c0-9.122 7.394-16.516 16.516-16.516z" fill="#857e87"/><circle cx="338.579" cy="260.129" fill="#6f6571" r="49.548"/><circle cx="396.385" cy="194.066" fill="#6f6571" r="66.063"/><path d="m396.385 179.614c5.702 0 10.322-4.621 10.322-10.322v-8.258c0-5.702-4.621-10.322-10.322-10.322-5.702 0-10.322 4.621-10.322 10.322v8.258c-.001 5.701 4.62 10.322 10.322 10.322z" fill="#95d6a4"/><path d="m396.385 237.42c5.702 0 10.322-4.621 10.322-10.322v-8.258c0-5.702-4.621-10.322-10.322-10.322-5.702 0-10.322 4.621-10.322 10.322v8.258c-.001 5.701 4.62 10.322 10.322 10.322z" fill="#a4ccff"/><path d="m363.353 204.388h8.258c5.702 0 10.322-4.621 10.322-10.322 0-5.702-4.621-10.322-10.322-10.322h-8.258c-5.702 0-10.322 4.621-10.322 10.322s4.621 10.322 10.322 10.322z" fill="#d6bdef"/><path d="m421.159 204.388h8.258c5.702 0 10.322-4.621 10.322-10.322 0-5.702-4.621-10.322-10.322-10.322h-8.258c-5.702 0-10.322 4.621-10.322 10.322-.001 5.701 4.62 10.322 10.322 10.322z" fill="#ff8086"/><path d="m123.873 103.228h-16.516c-9.121 0-16.516 7.394-16.516 16.516v16.516h49.548v-16.516c0-9.122-7.395-16.516-16.516-16.516z" fill="#857e87"/><circle cx="173.421" cy="260.129" fill="#6f6571" r="49.548"/><circle cx="115.615" cy="194.066" fill="#6f6571" r="66.063"/><path d="m198.195 260.129c0 4.224-1.057 8.202-2.922 11.682-4.174 7.792-12.394 9.689-21.852 9.689-13.682 0-21.421-7.689-21.421-21.371 0-9.464 1.954-17.689 9.754-21.86 3.477-1.859 7.448-2.913 11.666-2.913 13.683-.001 24.775 11.091 24.775 24.773z" fill="#9b959d"/><g fill="#857e87"><path d="m115.615 179.614c-5.702 0-10.322-4.621-10.322-10.322v-8.258c0-5.702 4.621-10.322 10.322-10.322 5.702 0 10.322 4.621 10.322 10.322v8.258c.001 5.701-4.62 10.322-10.322 10.322z"/><path d="m115.615 237.42c-5.702 0-10.322-4.621-10.322-10.322v-8.258c0-5.702 4.621-10.322 10.322-10.322 5.702 0 10.322 4.621 10.322 10.322v8.258c.001 5.701-4.62 10.322-10.322 10.322z"/><path d="m148.647 204.388h-8.258c-5.702 0-10.322-4.621-10.322-10.322 0-5.702 4.621-10.322 10.322-10.322h8.258c5.702 0 10.322 4.621 10.322 10.322s-4.621 10.322-10.322 10.322z"/><path d="m90.841 204.388h-8.258c-5.702 0-10.322-4.621-10.322-10.322 0-5.702 4.621-10.322 10.322-10.322h8.258c5.702 0 10.322 4.621 10.322 10.322.001 5.701-4.62 10.322-10.322 10.322z"/></g><path d="m206.452 136.26v33.032c0 9.121 7.395 16.516 16.516 16.516h66.063c9.121 0 16.516-7.395 16.516-16.516v-33.032z" fill="#4b3f4e"/><path d="m256 260.129c-4.564 0-8.258-3.698-8.258-8.258v-8.258c0-4.56 3.693-8.258 8.258-8.258 4.564 0 8.258 3.698 8.258 8.258v8.258c0 4.56-3.694 8.258-8.258 8.258z" fill="#857e87"/><path d="m183.614 274.709c-13.682 0-24.774-11.092-24.774-24.774 0-4.209 1.063-8.196 2.914-11.666-7.814 4.168-13.107 12.386-13.107 21.86 0 13.682 11.092 24.774 24.774 24.774 9.474 0 17.684-5.278 21.852-13.092-3.471 1.852-7.45 2.898-11.659 2.898z" fill="#857e87"/><path d="m363.353 260.129c0 4.224-1.057 8.202-2.922 11.682-4.174 7.792-12.394 9.689-21.852 9.689-13.682 0-21.421-7.689-21.421-21.371 0-9.464 1.954-17.689 9.754-21.86 3.477-1.859 7.448-2.913 11.666-2.913 13.683-.001 24.775 11.091 24.775 24.773z" fill="#9b959d"/><path d="m348.773 274.709c-13.682 0-24.774-11.092-24.774-24.774 0-4.209 1.063-8.196 2.914-11.666-7.814 4.168-13.107 12.386-13.107 21.86 0 13.682 11.092 24.774 24.774 24.774 9.474 0 17.684-5.278 21.852-13.092-3.472 1.852-7.451 2.898-11.659 2.898z" fill="#857e87"/></svg>